<?xml version="1.0" standalone="no"?><!DOCTYPE svg PUBLIC "-//W3C//DTD SVG 1.1//EN" "http://www.w3.org/Graphics/SVG/1.1/DTD/svg11.dtd"><svg t="1585299892418" class="icon" viewBox="0 0 1024 1024" version="1.1" xmlns="http://www.w3.org/2000/svg" p-id="6911" xmlns:xlink="http://www.w3.org/1999/xlink" width="200" height="200"><defs><style type="text/css"></style></defs><path d="M789.333333 170.666667a64 64 0 0 1 64 64v554.666666a64 64 0 0 1-64 64H234.666667a64 64 0 0 1-64-64V234.666667a64 64 0 0 1 64-64h554.666666z m0 277.333333H234.666667v341.333333h554.666666V448zM565.333333 661.333333v64H298.666667v-64h266.666666z m160 0v64h-106.666666v-64h106.666666z m-320-128v64h-106.666666v-64h106.666666z m160 0v64h-106.666666v-64h106.666666z m160 0v64h-106.666666v-64h106.666666z m64-298.666666H234.666667v149.333333h554.666666v-149.333333z" p-id="6912"></path></svg>