<?xml version="1.0" standalone="no"?><!DOCTYPE svg PUBLIC "-//W3C//DTD SVG 1.1//EN" "http://www.w3.org/Graphics/SVG/1.1/DTD/svg11.dtd"><svg t="1585299916520" class="icon" viewBox="0 0 1024 1024" version="1.1" xmlns="http://www.w3.org/2000/svg" p-id="7034" xmlns:xlink="http://www.w3.org/1999/xlink" width="200" height="200"><defs><style type="text/css"></style></defs><path d="M832 832a64 64 0 0 1-64 64H256a64 64 0 0 1-64-64V192a64 64 0 0 1 64-64h512a64 64 0 0 1 64 64v640z m-64-320H256v320h512V512z m-384 64v170.666667h-64v-170.666667h64zM768 192H256v256h512V192z m-384 64v128h-64v-128h64z" p-id="7035"></path></svg>